<svg width="240" height="407" viewBox="0 0 240 407" fill="none" xmlns="http://www.w3.org/2000/svg">
<path fill-rule="evenodd" clip-rule="evenodd" d="M0 0H240V0.116251C162.498 3.12466 99.887 64.161 94.3919 141H0V0ZM0 156V156.114L240 396.114V303.884C160.159 300.785 96.1209 236.102 94.0516 156H0ZM109.057 156C110.736 214.533 149.128 263.869 202.015 281.786C178.601 255.735 162.784 209.278 162.028 156H109.057ZM177.03 156C177.604 194.304 186.384 228.194 199.603 252.258C211.899 274.641 226.434 286.078 240 288.505V156H177.03ZM240 141H177.227C178.698 105.574 187.195 74.3292 199.603 51.7419C211.899 29.3591 226.434 17.922 240 15.4951V141ZM162.215 141H109.435C113.84 85.5584 151.25 39.4123 202.015 22.2137C179.632 47.1175 164.193 90.6686 162.215 141ZM0 177.327L229.673 407H187.246L0 219.754V177.327ZM0 240.967L166.033 407H123.607L0 283.393V240.967ZM0 304.607L102.393 407H59.967L0 347.033V304.607ZM0 368.246L38.7538 407H0V368.246Z" fill="#435644"/>
</svg>
