<svg width="547" height="533" viewBox="0 0 547 533" fill="none" xmlns="http://www.w3.org/2000/svg">
<path d="M29.5709 469.1V461H60.8709V469.1H49.8709V506H40.5709V469.1H29.5709ZM84.3388 506V461H108.339V468.8H93.0388V475.7H104.839V483.2H93.0388V497.9H108.339V506H84.3388ZM132.549 506V461H146.299C149.565 461 152.349 461.65 154.649 462.95C156.982 464.25 158.765 465.983 159.999 468.15C161.232 470.283 161.849 472.633 161.849 475.2C161.849 477.533 161.332 479.65 160.299 481.55C159.299 483.45 157.865 485.017 155.999 486.25L167.899 506H158.049L148.049 488.9H141.249V506H132.549ZM141.249 481.4H146.099C147.732 481.4 149.065 481.1 150.099 480.5C151.132 479.867 151.899 479.083 152.399 478.15C152.899 477.183 153.149 476.2 153.149 475.2C153.149 473.433 152.499 471.983 151.199 470.85C149.899 469.683 148.199 469.1 146.099 469.1H141.249V481.4ZM189.117 506V461H202.867C206.133 461 208.917 461.65 211.217 462.95C213.55 464.25 215.333 465.983 216.567 468.15C217.8 470.283 218.417 472.633 218.417 475.2C218.417 477.533 217.9 479.65 216.867 481.55C215.867 483.45 214.433 485.017 212.567 486.25L224.467 506H214.617L204.617 488.9H197.817V506H189.117ZM197.817 481.4H202.667C204.3 481.4 205.633 481.1 206.667 480.5C207.7 479.867 208.467 479.083 208.967 478.15C209.467 477.183 209.717 476.2 209.717 475.2C209.717 473.433 209.067 471.983 207.767 470.85C206.467 469.683 204.767 469.1 202.667 469.1H197.817V481.4ZM241.334 506L261.184 459.4H261.284L281.134 506H272.084L268.734 498H253.434L250.084 506H241.334ZM256.434 490.8H265.734L263.784 486.2C263.251 484.967 262.751 483.783 262.284 482.65C261.851 481.483 261.434 480.133 261.034 478.6C260.668 480.1 260.268 481.433 259.834 482.6C259.401 483.767 258.918 484.967 258.384 486.2L256.434 490.8ZM338.487 507.5L311.487 480.55V506H303.087V459.5L330.087 486.4V461H338.487V507.5ZM386.347 506.9C383.047 506.9 379.963 506.3 377.097 505.1C374.23 503.867 371.697 502.183 369.497 500.05C367.33 497.917 365.63 495.433 364.397 492.6C363.163 489.767 362.547 486.733 362.547 483.5C362.547 480.267 363.163 477.233 364.397 474.4C365.63 471.567 367.33 469.083 369.497 466.95C371.697 464.817 374.23 463.15 377.097 461.95C379.963 460.717 383.047 460.1 386.347 460.1C389.647 460.1 392.73 460.717 395.597 461.95C398.463 463.15 400.98 464.817 403.147 466.95C405.347 469.083 407.063 471.567 408.297 474.4C409.53 477.233 410.147 480.267 410.147 483.5C410.147 486.733 409.53 489.767 408.297 492.6C407.063 495.433 405.347 497.917 403.147 500.05C400.98 502.183 398.463 503.867 395.597 505.1C392.73 506.3 389.647 506.9 386.347 506.9ZM386.347 498.2C389.047 498.2 391.48 497.55 393.647 496.25C395.813 494.917 397.53 493.133 398.797 490.9C400.097 488.667 400.747 486.2 400.747 483.5C400.747 480.767 400.097 478.3 398.797 476.1C397.53 473.867 395.813 472.1 393.647 470.8C391.48 469.467 389.047 468.8 386.347 468.8C383.647 468.8 381.197 469.467 378.997 470.8C376.83 472.1 375.113 473.867 373.847 476.1C372.58 478.3 371.947 480.767 371.947 483.5C371.947 486.2 372.58 488.667 373.847 490.9C375.113 493.133 376.83 494.917 378.997 496.25C381.197 497.55 383.647 498.2 386.347 498.2ZM447.146 507.5L428.246 461H437.746L445.096 479.5C445.496 480.533 445.896 481.55 446.296 482.55C446.696 483.517 447.079 484.6 447.446 485.8C447.779 484.633 448.129 483.583 448.496 482.65C448.896 481.683 449.312 480.633 449.746 479.5L457.096 461H466.146L447.246 507.5H447.146ZM479.137 506L498.987 459.4H499.087L518.937 506H509.887L506.537 498H491.237L487.887 506H479.137ZM494.237 490.8H503.537L501.587 486.2C501.054 484.967 500.554 483.783 500.087 482.65C499.654 481.483 499.237 480.133 498.837 478.6C498.47 480.1 498.07 481.433 497.637 482.6C497.204 483.767 496.72 484.967 496.187 486.2L494.237 490.8Z" fill="#333333"/>
<path fill-rule="evenodd" clip-rule="evenodd" d="M340.97 183H280V315.083C292.984 311.931 306.703 300.545 318.397 279.258C331.616 255.194 340.396 221.304 340.97 183ZM355.972 183H409.943C408.249 242.06 369.178 291.756 315.555 309.262C339.205 283.303 355.211 236.604 355.972 183ZM409.565 168H355.785C353.795 117.347 338.17 73.5603 315.555 48.7378C367.046 65.5483 405.119 112.039 409.565 168ZM424.948 183C422.888 262.767 359.375 327.244 280 330.842V423.303L520 183.303V183H424.948ZM520 168V27H280V27.1583C357.04 30.6504 419.137 91.4917 424.608 168H520ZM340.773 168H280V42.9168C292.984 46.0687 306.703 57.4555 318.397 78.7419C330.805 101.329 339.302 132.574 340.773 168ZM290.516 434L520 204.516V246.942L332.942 434H290.516ZM354.156 434L520 268.156V310.582L396.582 434H354.156ZM417.795 434L520 331.795V374.222L460.222 434H417.795ZM481.435 434L520 395.435V434H481.435Z" fill="#9A7142"/>
<path fill-rule="evenodd" clip-rule="evenodd" d="M27 27H267V27.1163C189.498 30.1247 126.887 91.161 121.392 168H27V27ZM27 183V183.114L267 423.114V330.884C187.159 327.785 123.121 263.102 121.052 183H27ZM136.057 183C137.736 241.533 176.128 290.869 229.015 308.786C205.601 282.735 189.784 236.278 189.028 183H136.057ZM204.03 183C204.604 221.304 213.384 255.194 226.603 279.258C238.899 301.641 253.434 313.078 267 315.505V183H204.03ZM267 168H204.227C205.698 132.574 214.195 101.329 226.603 78.7419C238.899 56.3591 253.434 44.922 267 42.4951V168ZM189.215 168H136.435C140.84 112.558 178.25 66.4123 229.015 49.2137C206.632 74.1175 191.193 117.669 189.215 168ZM27 204.327L256.673 434H214.246L27 246.754V204.327ZM27 267.967L193.033 434H150.607L27 310.393V267.967ZM27 331.607L129.393 434H86.967L27 374.033V331.607ZM27 395.246L65.7538 434H27V395.246Z" fill="#435644"/>
</svg>
