<svg width="240" height="407" viewBox="0 0 240 407" fill="none" xmlns="http://www.w3.org/2000/svg">
<path fill-rule="evenodd" clip-rule="evenodd" d="M60.9701 156H0V288.083C12.9841 284.931 26.703 273.545 38.3965 252.258C51.6158 228.194 60.3964 194.304 60.9701 156ZM75.9716 156H129.943C128.249 215.06 89.1781 264.756 35.5548 282.262C59.2053 256.303 75.211 209.604 75.9716 156ZM129.565 141H75.7847C73.7947 90.3465 58.1698 46.5603 35.5548 21.7378C87.0457 38.5483 125.119 85.0388 129.565 141ZM144.948 156C142.888 235.767 79.3753 300.244 0 303.842V396.303L240 156.303V156H144.948ZM240 141V0H0V0.158323C77.0399 3.65042 139.137 64.4917 144.608 141H240ZM60.7727 141H0V15.9168C12.9841 19.0687 26.703 30.4555 38.3965 51.7419C50.8046 74.3292 59.3021 105.574 60.7727 141ZM10.5159 407L240 177.516V219.942L52.9423 407H10.5159ZM74.1555 407L240 241.156V283.582L116.582 407H74.1555ZM137.795 407L240 304.795V347.222L180.222 407H137.795ZM201.435 407L240 368.435V407H201.435Z" fill="#9A7142"/>
</svg>
