<svg width="490" height="49" viewBox="0 0 490 49" fill="none" xmlns="http://www.w3.org/2000/svg">
<path d="M0.570947 10.1V2H31.8709V10.1H20.8709V47H11.5709V10.1H0.570947ZM55.3388 47V2H79.3388V9.8H64.0388V16.7H75.8388V24.2H64.0388V38.9H79.3388V47H55.3388ZM103.549 47V2H117.299C120.565 2 123.349 2.65 125.649 3.95C127.982 5.25 129.765 6.98333 130.999 9.15C132.232 11.2833 132.849 13.6333 132.849 16.2C132.849 18.5333 132.332 20.65 131.299 22.55C130.299 24.45 128.865 26.0167 126.999 27.25L138.899 47H129.049L119.049 29.9H112.249V47H103.549ZM112.249 22.4H117.099C118.732 22.4 120.065 22.1 121.099 21.5C122.132 20.8667 122.899 20.0833 123.399 19.15C123.899 18.1833 124.149 17.2 124.149 16.2C124.149 14.4333 123.499 12.9833 122.199 11.85C120.899 10.6833 119.199 10.1 117.099 10.1H112.249V22.4ZM160.117 47V2H173.867C177.133 2 179.917 2.65 182.217 3.95C184.55 5.25 186.333 6.98333 187.567 9.15C188.8 11.2833 189.417 13.6333 189.417 16.2C189.417 18.5333 188.9 20.65 187.867 22.55C186.867 24.45 185.433 26.0167 183.567 27.25L195.467 47H185.617L175.617 29.9H168.817V47H160.117ZM168.817 22.4H173.667C175.3 22.4 176.633 22.1 177.667 21.5C178.7 20.8667 179.467 20.0833 179.967 19.15C180.467 18.1833 180.717 17.2 180.717 16.2C180.717 14.4333 180.067 12.9833 178.767 11.85C177.467 10.6833 175.767 10.1 173.667 10.1H168.817V22.4ZM212.334 47L232.184 0.4H232.284L252.134 47H243.084L239.734 39H224.434L221.084 47H212.334ZM227.434 31.8H236.734L234.784 27.2C234.251 25.9667 233.751 24.7833 233.284 23.65C232.851 22.4833 232.434 21.1333 232.034 19.6C231.668 21.1 231.268 22.4333 230.834 23.6C230.401 24.7667 229.918 25.9667 229.384 27.2L227.434 31.8ZM309.487 48.5L282.487 21.55V47H274.087V0.499997L301.087 27.4V2H309.487V48.5ZM357.347 47.9C354.047 47.9 350.963 47.3 348.097 46.1C345.23 44.8667 342.697 43.1833 340.497 41.05C338.33 38.9167 336.63 36.4333 335.397 33.6C334.163 30.7667 333.547 27.7333 333.547 24.5C333.547 21.2667 334.163 18.2333 335.397 15.4C336.63 12.5667 338.33 10.0833 340.497 7.95C342.697 5.81666 345.23 4.15 348.097 2.95C350.963 1.71667 354.047 1.1 357.347 1.1C360.647 1.1 363.73 1.71667 366.597 2.95C369.463 4.15 371.98 5.81666 374.147 7.95C376.347 10.0833 378.063 12.5667 379.297 15.4C380.53 18.2333 381.147 21.2667 381.147 24.5C381.147 27.7333 380.53 30.7667 379.297 33.6C378.063 36.4333 376.347 38.9167 374.147 41.05C371.98 43.1833 369.463 44.8667 366.597 46.1C363.73 47.3 360.647 47.9 357.347 47.9ZM357.347 39.2C360.047 39.2 362.48 38.55 364.647 37.25C366.813 35.9167 368.53 34.1333 369.797 31.9C371.097 29.6667 371.747 27.2 371.747 24.5C371.747 21.7667 371.097 19.3 369.797 17.1C368.53 14.8667 366.813 13.1 364.647 11.8C362.48 10.4667 360.047 9.8 357.347 9.8C354.647 9.8 352.197 10.4667 349.997 11.8C347.83 13.1 346.113 14.8667 344.847 17.1C343.58 19.3 342.947 21.7667 342.947 24.5C342.947 27.2 343.58 29.6667 344.847 31.9C346.113 34.1333 347.83 35.9167 349.997 37.25C352.197 38.55 354.647 39.2 357.347 39.2ZM418.146 48.5L399.246 2H408.746L416.096 20.5C416.496 21.5333 416.896 22.55 417.296 23.55C417.696 24.5167 418.079 25.6 418.446 26.8C418.779 25.6333 419.129 24.5833 419.496 23.65C419.896 22.6833 420.312 21.6333 420.746 20.5L428.096 2H437.146L418.246 48.5H418.146ZM450.137 47L469.987 0.4H470.087L489.937 47H480.887L477.537 39H462.237L458.887 47H450.137ZM465.237 31.8H474.537L472.587 27.2C472.054 25.9667 471.554 24.7833 471.087 23.65C470.654 22.4833 470.237 21.1333 469.837 19.6C469.47 21.1 469.07 22.4333 468.637 23.6C468.204 24.7667 467.72 25.9667 467.187 27.2L465.237 31.8Z" fill="#333333"/>
</svg>
